<mxfile host="app.diagrams.net" agent="Mozilla/5.0 (Windows NT 10.0; Win64; x64) AppleWebKit/537.36 (KHTML, like Gecko) Chrome/127.0.0.0 Safari/537.36" version="24.7.6">
  <diagram name="Page-1" id="e6x3UrIEAg-zx1S_uiJp">
    <mxGraphModel dx="880" dy="434" grid="1" gridSize="10" guides="1" tooltips="1" connect="1" arrows="1" fold="1" page="1" pageScale="1" pageWidth="850" pageHeight="1100" math="0" shadow="0">
      <root>
        <mxCell id="0" />
        <mxCell id="1" parent="0" />
        <mxCell id="Myf7jaz1II2UnpfCdi-W-1" value="" style="shape=mxgraph.cisco.computers_and_peripherals.pc;html=1;pointerEvents=1;dashed=0;fillColor=#036897;strokeColor=#ffffff;strokeWidth=2;verticalLabelPosition=bottom;verticalAlign=top;align=center;outlineConnect=0;" vertex="1" parent="1">
          <mxGeometry x="70" y="160" width="110" height="110" as="geometry" />
        </mxCell>
        <mxCell id="Myf7jaz1II2UnpfCdi-W-2" value="" style="aspect=fixed;sketch=0;html=1;dashed=0;whitespace=wrap;verticalLabelPosition=bottom;verticalAlign=top;fillColor=#2875E2;strokeColor=#ffffff;points=[[0.005,0.63,0],[0.1,0.2,0],[0.9,0.2,0],[0.5,0,0],[0.995,0.63,0],[0.72,0.99,0],[0.5,1,0],[0.28,0.99,0]];shape=mxgraph.kubernetes.icon2;kubernetesLabel=1;prIcon=api" vertex="1" parent="1">
          <mxGeometry x="370" y="150" width="135.42" height="130" as="geometry" />
        </mxCell>
        <mxCell id="Myf7jaz1II2UnpfCdi-W-3" value="" style="sketch=0;outlineConnect=0;fontColor=#232F3E;gradientColor=none;fillColor=#232F3D;strokeColor=none;dashed=0;verticalLabelPosition=bottom;verticalAlign=top;align=center;html=1;fontSize=12;fontStyle=0;aspect=fixed;pointerEvents=1;shape=mxgraph.aws4.servers;" vertex="1" parent="1">
          <mxGeometry x="650" y="160" width="110" height="110" as="geometry" />
        </mxCell>
        <mxCell id="Myf7jaz1II2UnpfCdi-W-5" value="" style="endArrow=classic;html=1;rounded=0;exitX=0.973;exitY=0.373;exitDx=0;exitDy=0;exitPerimeter=0;strokeWidth=2;" edge="1" parent="1" source="Myf7jaz1II2UnpfCdi-W-1">
          <mxGeometry width="50" height="50" relative="1" as="geometry">
            <mxPoint x="190" y="200" as="sourcePoint" />
            <mxPoint x="380" y="200" as="targetPoint" />
          </mxGeometry>
        </mxCell>
        <mxCell id="Myf7jaz1II2UnpfCdi-W-6" value="" style="endArrow=classic;html=1;rounded=0;exitX=0.005;exitY=0.63;exitDx=0;exitDy=0;exitPerimeter=0;strokeWidth=2;entryX=1;entryY=0.654;entryDx=0;entryDy=0;entryPerimeter=0;" edge="1" parent="1" source="Myf7jaz1II2UnpfCdi-W-2" target="Myf7jaz1II2UnpfCdi-W-1">
          <mxGeometry width="50" height="50" relative="1" as="geometry">
            <mxPoint x="130" y="381" as="sourcePoint" />
            <mxPoint x="333" y="380" as="targetPoint" />
          </mxGeometry>
        </mxCell>
        <mxCell id="Myf7jaz1II2UnpfCdi-W-7" value="&lt;font style=&quot;font-size: 16px;&quot; face=&quot;Times New Roman&quot;&gt;&lt;b&gt;Request&amp;nbsp;&lt;/b&gt;&lt;/font&gt;" style="text;html=1;align=center;verticalAlign=middle;whiteSpace=wrap;rounded=0;" vertex="1" parent="1">
          <mxGeometry x="240" y="170" width="60" height="30" as="geometry" />
        </mxCell>
        <mxCell id="Myf7jaz1II2UnpfCdi-W-8" value="&lt;font style=&quot;font-size: 16px;&quot; face=&quot;Times New Roman&quot;&gt;&lt;b&gt;Response&lt;/b&gt;&lt;/font&gt;" style="text;html=1;align=center;verticalAlign=middle;whiteSpace=wrap;rounded=0;" vertex="1" parent="1">
          <mxGeometry x="240" y="240" width="60" height="30" as="geometry" />
        </mxCell>
        <mxCell id="Myf7jaz1II2UnpfCdi-W-9" value="" style="endArrow=classic;html=1;rounded=0;exitX=0.99;exitY=0.508;exitDx=0;exitDy=0;exitPerimeter=0;strokeWidth=2;" edge="1" parent="1" source="Myf7jaz1II2UnpfCdi-W-2">
          <mxGeometry width="50" height="50" relative="1" as="geometry">
            <mxPoint x="520" y="215.5" as="sourcePoint" />
            <mxPoint x="640" y="215" as="targetPoint" />
          </mxGeometry>
        </mxCell>
        <mxCell id="Myf7jaz1II2UnpfCdi-W-10" value="&lt;font style=&quot;font-size: 16px;&quot; face=&quot;Times New Roman&quot;&gt;&lt;b&gt;Back-end System&lt;/b&gt;&lt;/font&gt;" style="text;html=1;align=center;verticalAlign=middle;whiteSpace=wrap;rounded=0;" vertex="1" parent="1">
          <mxGeometry x="635" y="120" width="140" height="30" as="geometry" />
        </mxCell>
        <mxCell id="Myf7jaz1II2UnpfCdi-W-11" value="&lt;font style=&quot;font-size: 16px;&quot; face=&quot;Times New Roman&quot;&gt;&lt;b&gt;End User/Client&lt;/b&gt;&lt;/font&gt;" style="text;html=1;align=center;verticalAlign=middle;whiteSpace=wrap;rounded=0;" vertex="1" parent="1">
          <mxGeometry x="50" y="120" width="140" height="30" as="geometry" />
        </mxCell>
        <mxCell id="Myf7jaz1II2UnpfCdi-W-12" value="&lt;font style=&quot;font-size: 16px;&quot; face=&quot;Times New Roman&quot;&gt;&lt;b&gt;API&lt;/b&gt;&lt;/font&gt;" style="text;html=1;align=center;verticalAlign=middle;whiteSpace=wrap;rounded=0;" vertex="1" parent="1">
          <mxGeometry x="370" y="120" width="140" height="30" as="geometry" />
        </mxCell>
        <mxCell id="Myf7jaz1II2UnpfCdi-W-13" value="" style="verticalLabelPosition=bottom;sketch=0;html=1;fillColor=#282828;strokeColor=none;verticalAlign=top;pointerEvents=1;align=center;shape=mxgraph.cisco_safe.people_places_things_icons.icon2;" vertex="1" parent="1">
          <mxGeometry x="80" y="360" width="80" height="100" as="geometry" />
        </mxCell>
        <mxCell id="Myf7jaz1II2UnpfCdi-W-15" value="" style="shape=mxgraph.signs.people.man_1;html=1;pointerEvents=1;fillColor=#000000;strokeColor=none;verticalLabelPosition=bottom;verticalAlign=top;align=center;" vertex="1" parent="1">
          <mxGeometry x="388" y="360" width="37" height="98" as="geometry" />
        </mxCell>
        <mxCell id="Myf7jaz1II2UnpfCdi-W-16" value="" style="shape=mxgraph.signs.food.coffee;html=1;pointerEvents=1;fillColor=#000000;strokeColor=none;verticalLabelPosition=bottom;verticalAlign=top;align=center;" vertex="1" parent="1">
          <mxGeometry x="650" y="360" width="80" height="50" as="geometry" />
        </mxCell>
        <mxCell id="Myf7jaz1II2UnpfCdi-W-17" value="" style="shape=mxgraph.signs.food.restaurant_1;html=1;pointerEvents=1;fillColor=#000000;strokeColor=none;verticalLabelPosition=bottom;verticalAlign=top;align=center;" vertex="1" parent="1">
          <mxGeometry x="750" y="362" width="20" height="38" as="geometry" />
        </mxCell>
        <mxCell id="Myf7jaz1II2UnpfCdi-W-18" value="" style="shape=mxgraph.signs.food.fast_food;html=1;pointerEvents=1;fillColor=#000000;strokeColor=none;verticalLabelPosition=bottom;verticalAlign=top;align=center;" vertex="1" parent="1">
          <mxGeometry x="641" y="430" width="79" height="50" as="geometry" />
        </mxCell>
        <mxCell id="Myf7jaz1II2UnpfCdi-W-19" value="" style="shape=image;html=1;verticalAlign=top;verticalLabelPosition=bottom;labelBackgroundColor=#ffffff;imageAspect=0;aspect=fixed;image=https://cdn1.iconfinder.com/data/icons/birthday-58/32/Icon-Extra-01-128.png" vertex="1" parent="1">
          <mxGeometry x="726" y="421" width="68" height="68" as="geometry" />
        </mxCell>
        <mxCell id="Myf7jaz1II2UnpfCdi-W-20" value="" style="endArrow=classic;html=1;rounded=0;exitX=0.973;exitY=0.373;exitDx=0;exitDy=0;exitPerimeter=0;strokeWidth=2;" edge="1" parent="1">
          <mxGeometry width="50" height="50" relative="1" as="geometry">
            <mxPoint x="168.5" y="400" as="sourcePoint" />
            <mxPoint x="371.5" y="399" as="targetPoint" />
          </mxGeometry>
        </mxCell>
        <mxCell id="Myf7jaz1II2UnpfCdi-W-21" value="" style="endArrow=classic;html=1;rounded=0;exitX=0.005;exitY=0.63;exitDx=0;exitDy=0;exitPerimeter=0;strokeWidth=2;" edge="1" parent="1">
          <mxGeometry width="50" height="50" relative="1" as="geometry">
            <mxPoint x="370" y="429" as="sourcePoint" />
            <mxPoint x="170" y="429" as="targetPoint" />
          </mxGeometry>
        </mxCell>
        <mxCell id="Myf7jaz1II2UnpfCdi-W-22" value="&lt;font style=&quot;font-size: 16px;&quot; face=&quot;Times New Roman&quot;&gt;&lt;b&gt;Customer&lt;/b&gt;&lt;/font&gt;" style="text;html=1;align=center;verticalAlign=middle;whiteSpace=wrap;rounded=0;" vertex="1" parent="1">
          <mxGeometry x="50" y="490" width="140" height="30" as="geometry" />
        </mxCell>
        <mxCell id="Myf7jaz1II2UnpfCdi-W-23" value="&lt;font style=&quot;font-size: 16px;&quot; face=&quot;Times New Roman&quot;&gt;&lt;b&gt;Waiter&lt;/b&gt;&lt;/font&gt;" style="text;html=1;align=center;verticalAlign=middle;whiteSpace=wrap;rounded=0;" vertex="1" parent="1">
          <mxGeometry x="336.5" y="490" width="140" height="30" as="geometry" />
        </mxCell>
        <mxCell id="Myf7jaz1II2UnpfCdi-W-25" value="&lt;font face=&quot;Times New Roman&quot;&gt;&lt;span style=&quot;font-size: 16px;&quot;&gt;&lt;b&gt;Restaurant&lt;/b&gt;&lt;/span&gt;&lt;/font&gt;" style="text;html=1;align=center;verticalAlign=middle;whiteSpace=wrap;rounded=0;" vertex="1" parent="1">
          <mxGeometry x="650" y="490" width="140" height="30" as="geometry" />
        </mxCell>
        <mxCell id="Myf7jaz1II2UnpfCdi-W-26" value="" style="endArrow=classic;html=1;rounded=0;exitX=0.99;exitY=0.508;exitDx=0;exitDy=0;exitPerimeter=0;strokeWidth=2;" edge="1" parent="1">
          <mxGeometry width="50" height="50" relative="1" as="geometry">
            <mxPoint x="441" y="400" as="sourcePoint" />
            <mxPoint x="641" y="400" as="targetPoint" />
          </mxGeometry>
        </mxCell>
        <mxCell id="Myf7jaz1II2UnpfCdi-W-27" value="&lt;font style=&quot;font-size: 16px;&quot; face=&quot;Times New Roman&quot;&gt;&lt;b&gt;Place the Order&lt;/b&gt;&lt;/font&gt;" style="text;html=1;align=center;verticalAlign=middle;whiteSpace=wrap;rounded=0;" vertex="1" parent="1">
          <mxGeometry x="205" y="366" width="130" height="30" as="geometry" />
        </mxCell>
        <mxCell id="Myf7jaz1II2UnpfCdi-W-28" value="&lt;font style=&quot;font-size: 16px;&quot; face=&quot;Times New Roman&quot;&gt;&lt;b&gt;Delivery of the Order&lt;/b&gt;&lt;/font&gt;" style="text;html=1;align=center;verticalAlign=middle;whiteSpace=wrap;rounded=0;" vertex="1" parent="1">
          <mxGeometry x="195" y="430" width="160" height="30" as="geometry" />
        </mxCell>
        <mxCell id="Myf7jaz1II2UnpfCdi-W-29" value="" style="endArrow=classic;html=1;rounded=0;exitX=0.005;exitY=0.63;exitDx=0;exitDy=0;exitPerimeter=0;strokeWidth=2;" edge="1" parent="1">
          <mxGeometry width="50" height="50" relative="1" as="geometry">
            <mxPoint x="641" y="430" as="sourcePoint" />
            <mxPoint x="436" y="431" as="targetPoint" />
          </mxGeometry>
        </mxCell>
        <mxCell id="Myf7jaz1II2UnpfCdi-W-30" value="&lt;font style=&quot;font-size: 16px;&quot; face=&quot;Times New Roman&quot;&gt;&lt;b&gt;Take the Order&lt;/b&gt;&lt;/font&gt;" style="text;html=1;align=center;verticalAlign=middle;whiteSpace=wrap;rounded=0;" vertex="1" parent="1">
          <mxGeometry x="470" y="370" width="130" height="30" as="geometry" />
        </mxCell>
        <mxCell id="Myf7jaz1II2UnpfCdi-W-31" value="&lt;div style=&quot;text-align: center;&quot;&gt;&lt;span style=&quot;background-color: initial; font-size: 16px;&quot;&gt;&lt;font face=&quot;Times New Roman&quot;&gt;&lt;b&gt;Bring the Order from Kitchen&lt;/b&gt;&lt;/font&gt;&lt;/span&gt;&lt;/div&gt;" style="text;whiteSpace=wrap;html=1;" vertex="1" parent="1">
          <mxGeometry x="440" y="435" width="190" height="40" as="geometry" />
        </mxCell>
      </root>
    </mxGraphModel>
  </diagram>
</mxfile>
